<mxfile host="app.diagrams.net" modified="2024-02-05T09:07:06.894Z" agent="Mozilla/5.0 (X11; CrOS x86_64 14541.0.0) AppleWebKit/537.36 (KHTML, like Gecko) Chrome/120.0.0.0 Safari/537.36" version="23.1.1" etag="HCPcb2fI6Fg0qFFtpUvn" type="github">
  <diagram name="Page-1" id="MmNAukP5VTHNTs4VmVIa">
    <mxGraphModel>
      <root>
        <mxCell id="0" />
        <mxCell id="1" parent="0" />
      </root>
    </mxGraphModel>
  </diagram>
</mxfile>
